<?xml version="1.0" standalone="no"?>
<svg xmlns="http://www.w3.org/2000/svg" version="1.1" xmlns:xlink="http://www.w3.org/1999/xlink" width="512" height="512" x="0" y="0" viewBox="0 0 500 500" style="enable-background:new 0 0 512 512" xml:space="preserve"><g><clipPath id="a"><path d="M0 0h500v500H0z" fill="#026630" opacity="1" data-original="#000000"/></clipPath><g fill="#000" clip-path="url(#a)"><path d="M287 36.5c0 20.158-16.342 36.5-36.5 36.5S214 56.658 214 36.5 230.342 0 250.5 0 287 16.342 287 36.5z" fill="#026630" opacity="1" data-original="#000000"/><path fill-rule="evenodd" d="M250.5 73H188c-54.858 0-101.396 35.624-117.743 85H68c-37.555 0-68 30.445-68 68s30.445 68 68 68h1.614c15.74 50.411 62.79 87 118.386 87h125c55.596 0 102.647-36.589 118.386-87H432c37.555 0 68-30.445 68-68s-30.445-68-68-68h-1.257C414.396 108.624 367.858 73 313 73zm121.186 145c0 25.637-20.784 46.421-46.422 46.421S278.843 243.637 278.843 218c0-25.638 20.783-46.422 46.421-46.422s46.422 20.784 46.422 46.422zm-197.265 46.421c25.638 0 46.422-20.784 46.422-46.421 0-25.638-20.784-46.422-46.422-46.422C148.784 171.578 128 192.362 128 218c0 25.637 20.784 46.421 46.421 46.421z" clip-rule="evenodd" fill="#026630" opacity="1" data-original="#000000"/><path d="M89.915 500c29.958-58.197 90.623-98 160.585-98s130.627 39.803 160.585 98z" fill="#026630" opacity="1" data-original="#000000"/></g></g></svg>