<?xml version="1.0" standalone="no"?>
<svg xmlns="http://www.w3.org/2000/svg" version="1.1" xmlns:xlink="http://www.w3.org/1999/xlink" width="512" height="512" x="0" y="0" viewBox="0 0 64 64" style="enable-background:new 0 0 512 512" xml:space="preserve" fill-rule="evenodd" class=""><g><path d="M0 35h9.783a8 8 0 0 0 7.527-5.29l2.633-7.315a2.002 2.002 0 0 1 3.846.3l4.671 24.288a6 6 0 0 0 11.463 1.095l3.425-8.564A4.002 4.002 0 0 1 47.062 37H60v13c0 3.713-1.475 7.274-4.101 9.899A13.996 13.996 0 0 1 46 64H14a13.996 13.996 0 0 1-9.899-4.101A13.996 13.996 0 0 1 0 50zm0-4V18c0-3.713 1.475-7.274 4.101-9.899A13.996 13.996 0 0 1 14 4h30.246l.363-.963a4.693 4.693 0 0 1 8.782 0l2.066 5.479a.059.059 0 0 0 .01.017.059.059 0 0 0 .017.01l5.479 2.066a4.693 4.693 0 0 1 0 8.782l-.963.363V33H47.062a8.001 8.001 0 0 0-7.428 5.029l-3.425 8.563a2 2 0 0 1-3.821-.365l-4.671-24.288a6 6 0 0 0-11.537-.899l-2.633 7.315A4 4 0 0 1 9.783 31zM48.352 4.448a.692.692 0 0 1 1.296 0l2.066 5.48a4.045 4.045 0 0 0 2.358 2.358l5.48 2.066a.692.692 0 0 1 0 1.296l-5.48 2.066a4.045 4.045 0 0 0-2.358 2.358l-2.066 5.48a.692.692 0 0 1-1.296 0l-2.066-5.48a4.045 4.045 0 0 0-2.358-2.358l-5.48-2.066a.692.692 0 0 1 0-1.296l5.48-2.066a4.045 4.045 0 0 0 2.358-2.358l2.066-5.48z" fill="#006045" opacity="1" data-original="#000000" class=""/></g></svg>