<?xml version="1.0" standalone="no"?>
<svg xmlns="http://www.w3.org/2000/svg" version="1.1" xmlns:xlink="http://www.w3.org/1999/xlink" width="512" height="512" x="0" y="0" viewBox="0 0 60 60" style="enable-background:new 0 0 512 512" xml:space="preserve" class=""><g><path fill="#007a55" d="M6 19C6 9.059 14.507 1 25 1l2 1v3h-2c-8.284 0-15 6.268-15 14v2H6zM54 19c0-9.941-8.507-18-19-18l-2 1v3h2c8.284 0 15 6.268 15 14v2h4z" opacity="1" data-original="#122359" class=""/><path fill="#ced7dd" d="M10 51v6a2 2 0 0 0 2 2h6v-8zM50 51v6a2 2 0 0 1-2 2h-6v-8h8z" opacity="1" data-original="#ced7dd" class=""/><path fill="#b3c1c9" d="M16 54.79a5.497 5.497 0 0 1-7-5.29c0-3.04 2.46-5.5 5.5-5.5 1.71 0 3.23.77 4.23 1.99zM41.27 45.99c1-1.22 2.52-1.99 4.23-1.99 3.04 0 5.5 2.46 5.5 5.5a5.497 5.497 0 0 1-7 5.29z" opacity="1" data-original="#b3c1c9"/><path fill="#ced7dd" d="M25 38h10v7H25z" opacity="1" data-original="#ced7dd" class=""/><path fill="#e4eaef" d="M38 13c6.08 0 11 4.92 11 11l1 2-1 2c0 6.08-4.92 11-11 11H22c-6.08 0-11-4.92-11-11l-1-2 1-2c0-6.08 4.92-11 11-11z" opacity="1" data-original="#e4eaef"/><rect width="30" height="14" x="15" y="19" fill="#007a55" rx="7" opacity="1" data-original="#122359" class=""/><path fill="#e4eaef" d="M24 44h12c4.415 0 8 3.585 8 8v5a2 2 0 0 1-2 2H18a2 2 0 0 1-2-2v-5c0-4.415 3.585-8 8-8z" opacity="1" data-original="#e4eaef"/><path fill="#ced7dd" d="M36.12 17.666c.851-1.153 1.877-2.905 1.88-4.657A2.006 2.006 0 0 0 36 11H23.999a2.006 2.006 0 0 0-2 2.009c.003 1.753 1.029 3.505 1.88 4.657A3.316 3.316 0 0 0 26.554 19h6.89c1.053 0 2.05-.487 2.675-1.334z" opacity="1" data-original="#ced7dd" class=""/><circle cx="22" cy="26" r="2" fill="#fe9a00" opacity="1" data-original="#71ffe4" class=""/><circle cx="38" cy="26" r="2" fill="#fe9a00" opacity="1" data-original="#71ffe4" class=""/><path fill="#094e39" d="M25 1h10v4a1 1 0 0 1-1 1h-8a1 1 0 0 1-1-1z" opacity="1" data-original="#23468e" class=""/><path fill="#ced7dd" d="M50 40h-6v-2h6a1 1 0 0 0 1-1v-6h2v6c0 1.654-1.346 3-3 3z" opacity="1" data-original="#ced7dd" class=""/><path fill="#094e39" d="M54 33h-4a1 1 0 0 1-1-1V20a1 1 0 0 1 1-1h4c1.656 0 3 1.344 3 3v8c0 1.656-1.344 3-3 3z" opacity="1" data-original="#23468e" class=""/><path fill="#007a55" d="M42 37h3a1 1 0 0 1 1 1v2a1 1 0 0 1-1 1h-3a2 2 0 0 1 0-4z" opacity="1" data-original="#122359" class=""/><path fill="#094e39" d="M6 19h4a1 1 0 0 1 1 1v12a1 1 0 0 1-1 1H6c-1.656 0-3-1.344-3-3v-8c0-1.656 1.344-3 3-3z" opacity="1" data-original="#23468e" class=""/></g></svg>